# xmcd
# 
# Track frame offsets:
#     150
#     9429
#     22933
#     31903
#     45190
#     58016
#     70329
#     77402
#     86656
#     97466
#     110163
#     120636
#     129716
#     137783
#     151550
#     159697
#     168514
#     178711
#     187004
#     197213
# 
# Disc length: 2794
# 
# Revision: 3
# Processed by: cddbd v1.5.2PL0 Copyright (c) Steve Scherf et al.
# Submitted via: fre:ac v1.0.17
# 
DISCID=0d0ae814
DTITLE=Various Artist - Country Greats CD3
DYEAR=2004
DGENRE=Country
TTITLE0=Tennessee Ernie Ford - When the red, red robin Comes Bob, Bob, Bobbin' Along
TTITLE1=Jimmy Wakely - Moon Over Montana
TTITLE2=Jim Reeves - If You Were Mine
TTITLE3=Bill Monroe and His Bluegrass Boys - Lonesome truck Driver's Blues
TTITLE4=Wilma Lee, Stoney Cooper and The Clinch - On The Banks of The River
TTITLE5=Johnnie Jack and The Tennessee Mountain Boys - A Smile On My Lips (And An Ache in My heart)
TTITLE6=Tennessee Ernie Ford - Wedding bells Are breaking Up That Old Gang Of Mine
TTITLE7=Johnny Bond and His Red River Valley Boys - Ten Years
TTITLE8=Pee Wee King and His Golden West Cowboys - Darling, Stop Playing With My Heart
TTITLE9=Hank Snow - Too Many Tears
TTITLE10=Hank Penny and His California Cowhands - I Want My Rib
TTITLE11=Patsy Cline - When A House Is Not A Home
TTITLE12=Rex Allen and His Arizona Wranglers With Bonnie Allen - Hold On Little Doggie
TTITLE13=Flatt and Scruggs With The Foggy Mountain Boys - Earl's Breakdown
TTITLE14=Jim Reeves - I Get The Blues When It Rains
TTITLE15=Ferlin Husky - I Wouldn't Treat A Dog Like You're Treating Me
TTITLE16=Jean Shepard - I Didn't know The Gun Was Loaded
TTITLE17=Rex Allen and His Arizona Wranglers With Bonnie Allen - Headin' For The open range
TTITLE18=Jimmy Wakely - Birmingham jail
TTITLE19=Flatt and Scruggs With The Foggy Mountain Boys - Down the Road
EXTD=
EXTT0=
EXTT1=
EXTT2=
EXTT3=
EXTT4=
EXTT5=
EXTT6=
EXTT7=
EXTT8=
EXTT9=
EXTT10=
EXTT11=
EXTT12=
EXTT13=
EXTT14=
EXTT15=
EXTT16=
EXTT17=
EXTT18=
EXTT19=
PLAYORDER=
